<svg t="1735382778590" class="icon" viewBox="0 0 1024 1024" version="1.1" xmlns="http://www.w3.org/2000/svg" p-id="31271" width="200" height="200"><path d="M512 512m-448 0a448 448 0 1 0 896 0 448 448 0 1 0-896 0Z" fill="#E7D8C8" p-id="31272"></path><path d="M592 952.9c-26 4.7-52.7 7.1-80 7.1-27.3 0-54-2.4-80-7.1V741h160v211.9z" fill="#FFEAEA" p-id="31273"></path><path d="M462 957.2l74.7-129.4c-8 1.4-16.5 2.2-25.2 2.2-33.4 0-62.7-11-79.5-27.5V741h160v180.4l-22.2 34.9c-18.9 2.4-38.2 3.7-57.8 3.7-16.9 0-33.6-0.9-50-2.8z" fill="#FFD8D8" p-id="31274"></path><path d="M592 952.9V806l180.7 70.4c-52.8 37.8-114.2 64.5-180.7 76.5z m-340.7-76.5L432 806v146.9c-66.5-12-127.9-38.7-180.7-76.5z" fill="#F5CDDF" p-id="31275"></path><path d="M375 938.7c-32.1-20-59-47.4-78.3-80L432 806v146.9c-19.5-3.5-38.5-8.3-57-14.2z m217 14.2V806l135.3 52.7c-19.3 32.5-46.2 60-78.3 80-18.5 5.9-37.5 10.7-57 14.2z" fill="#BA7E7C" p-id="31276"></path><path d="M375 938.7c-11.6-3.7-23-7.9-34.1-12.5-21.3-18-39.5-39.6-53.6-63.8l9.4-3.7c19.3 32.5 46.2 60 78.3 80z m308.1-12.5c-11.2 4.6-22.5 8.8-34.1 12.5 32.1-20 59-47.4 78.3-80l9.4 3.7c-14.1 24.2-32.3 45.8-53.6 63.8z" fill="#BA7E7C" p-id="31277"></path><path d="M432 952.9c-19.5-3.5-38.5-8.3-57-14.2-32.1-20-59-47.4-78.3-80l18.9-7.4c26.4 43 67.5 76 116.4 92v9.6z m217-14.2c-18.5 5.9-37.5 10.7-57 14.2v-9.5c48.8-16 90-49 116.4-92l18.9 7.4c-19.3 32.4-46.2 59.9-78.3 79.9z" fill="#D6B892" p-id="31278"></path><path d="M500.3 959.9c-24.2-0.6-48-3.2-71.2-7.5L354 836l77.9-63 98 169.7-29.6 17.2z" fill="#FFFFFF" p-id="31279"></path><path d="M461.7 957.2l38.3-66.4 30 51.9-29.6 17.1c-13.1-0.3-26-1.2-38.7-2.6z" fill="#E9EBD6" p-id="31280"></path><path d="M596.5 952c-27.4 5.2-55.6 8-84.5 8-9.1 0-18.2-0.3-27.2-0.8L592.3 773l77.9 63-73.7 116z" fill="#FFFFFF" p-id="31281"></path><path d="M432 892c11.6 0 21-9.4 21-21s-9.4-21-21-21-21 9.4-21 21 9.4 21 21 21z m0 4c-13.8 0-25-11.2-25-25s11.2-25 25-25 25 11.2 25 25-11.2 25-25 25z" fill="#D6B892" p-id="31282"></path><path d="M419.5 879c-6.9 0-12.5-3.6-12.5-8s5.6-8 12.5-8 12.5 3.6 12.5 8-5.6 8-12.5 8z m25 0c-6.9 0-12.5-3.6-12.5-8s5.6-8 12.5-8 12.5 3.6 12.5 8-5.6 8-12.5 8z m-25-4c5 0 8.5-2.3 8.5-4s-3.5-4-8.5-4-8.5 2.3-8.5 4 3.5 4 8.5 4z m25 0c5 0 8.5-2.3 8.5-4s-3.5-4-8.5-4-8.5 2.3-8.5 4 3.5 4 8.5 4z" fill="#D6B892" p-id="31283"></path><path d="M424 858.5c0-6.9 3.6-12.5 8-12.5s8 5.6 8 12.5-3.6 12.5-8 12.5-8-5.6-8-12.5z m0 25c0-6.9 3.6-12.5 8-12.5s8 5.6 8 12.5-3.6 12.5-8 12.5-8-5.6-8-12.5z m4-25c0 5 2.3 8.5 4 8.5s4-3.5 4-8.5-2.3-8.5-4-8.5-4 3.5-4 8.5z m0 25c0 5 2.3 8.5 4 8.5s4-3.5 4-8.5-2.3-8.5-4-8.5-4 3.5-4 8.5zM592 892c11.6 0 21-9.4 21-21s-9.4-21-21-21-21 9.4-21 21 9.4 21 21 21z m0 4c-13.8 0-25-11.2-25-25s11.2-25 25-25 25 11.2 25 25-11.2 25-25 25z" fill="#D6B892" p-id="31284"></path><path d="M579.5 879c-6.9 0-12.5-3.6-12.5-8s5.6-8 12.5-8 12.5 3.6 12.5 8-5.6 8-12.5 8z m25 0c-6.9 0-12.5-3.6-12.5-8s5.6-8 12.5-8 12.5 3.6 12.5 8-5.6 8-12.5 8z m-25-4c5 0 8.5-2.3 8.5-4s-3.5-4-8.5-4-8.5 2.3-8.5 4 3.5 4 8.5 4z m25 0c5 0 8.5-2.3 8.5-4s-3.5-4-8.5-4-8.5 2.3-8.5 4 3.5 4 8.5 4z" fill="#D6B892" p-id="31285"></path><path d="M584 858.5c0-6.9 3.6-12.5 8-12.5s8 5.6 8 12.5-3.6 12.5-8 12.5-8-5.6-8-12.5z m0 25c0-6.9 3.6-12.5 8-12.5s8 5.6 8 12.5-3.6 12.5-8 12.5-8-5.6-8-12.5z m4-25c0 5 2.3 8.5 4 8.5s4-3.5 4-8.5-2.3-8.5-4-8.5-4 3.5-4 8.5z m0 25c0 5 2.3 8.5 4 8.5s4-3.5 4-8.5-2.3-8.5-4-8.5-4 3.5-4 8.5z" fill="#D6B892" p-id="31286"></path><path d="M212 408a300 290 0 1 0 600 0 300 290 0 1 0-600 0Z" fill="#717171" p-id="31287"></path><path d="M512 678c154.8 0 280-121 280-270S666.8 138 512 138 232 259 232 408s125.2 270 280 270z m0 20c-165.7 0-300-129.8-300-290s134.3-290 300-290 300 129.8 300 290-134.3 290-300 290z" fill="#8F8190" p-id="31288"></path><path d="M367.7 362.3c-2.1 9.5-24.8 28.9-55.4 46.5-34.7 20-66.3 30.2-70.6 22.8-4.3-7.5 20.3-29.7 55-49.8 9.8-5.6 19.3-10.5 28.1-14.4-9.6-0.7-20.2-2-31.3-4-39.5-7-70.2-19.5-68.7-27.9 1.5-8.5 34.7-9.7 74.2-2.7 12.1 2.1 23.4 4.8 33.2 7.7-7.2-6.9-14.8-15-22.4-24.1-25.8-30.7-41.3-60.1-34.7-65.6s32.8 14.9 58.6 45.6c6.4 7.6 12.1 15.1 17 22.1-0.8-8.6-1.2-18-1.2-27.9 0-40.1 7-72.6 15.6-72.6s15.6 32.5 15.6 72.6c0 32.7-4.7 60.4-11 69.4-0.2 0.8-0.7 1.5-1.2 2-0.4 0.1-0.6 0.2-0.8 0.3z" fill="#B1B7D2" p-id="31289"></path><path d="M339.8 331c-4.6-9.2-9.3-20-13.5-31.7-13.7-37.7-18.3-70.6-10.2-73.5 8.1-2.9 25.7 25.2 39.5 62.8 3.9 10.6 7 20.8 9.3 30.1 2.3-9.3 5.5-19.5 9.3-30.1 13.7-37.7 31.4-65.8 39.5-62.8 8.1 2.9 3.5 35.9-10.2 73.5-11.5 31.7-25.9 56.7-35 62 0 0.8-0.1 1.5-0.4 2.1-1.9 11.6-15.8 34.8-36 58.8-25.8 30.7-52 51.1-58.6 45.6s8.9-34.9 34.7-65.6c6.4-7.6 12.7-14.5 18.8-20.6-8.3 2.3-17.6 4.3-27.3 6-39.5 7-72.7 5.7-74.2-2.7-1.5-8.5 29.3-21 68.7-27.9 9.5-1.7 18.7-2.9 27.1-3.6-7.6-3.6-15.8-7.8-24.1-12.6-34.7-20-59.3-42.3-55-49.8 4.3-7.5 35.9 2.7 70.6 22.8 10.1 5.6 19.2 11.5 27 17.2z" fill="#878EB6" p-id="31290"></path><path d="M701.2 337.8c7.5-1.9 15.7-3.7 24.3-5.2 39.5-7 72.7-5.7 74.2 2.7 1.5 8.5-29.3 21-68.7 27.9-11.1 2-21.7 3.3-31.3 4 8.7 3.9 18.3 8.8 28.1 14.4 34.7 20 59.3 42.3 55 49.8s-35.9-2.7-70.6-22.8c-33.5-19.4-57.7-40.8-55.4-49 0.1-1.3 0.9-2.7 2.3-4.1-5.1-11.9-8.6-36.5-8.6-65 0-40.1 7-72.6 15.6-72.6s15.6 32.5 15.6 72.6c0 9.7-0.4 18.9-1.1 27.3 4.8-6.9 10.4-14.2 16.6-21.5 25.8-30.7 52-51.1 58.6-45.6 6.6 5.5-8.9 34.9-34.7 65.6-6.9 8-13.5 15.3-19.9 21.5z" fill="#B1B7D2" p-id="31291"></path><path d="M657.1 356.8c-8.8-9.7-20.3-31.3-29.9-57.6-13.7-37.7-18.3-70.6-10.2-73.5 8.1-2.9 25.7 25.2 39.5 62.8 3.9 10.6 7 20.8 9.3 30.1 2.3-9.3 5.5-19.5 9.3-30.1 13.7-37.7 31.4-65.8 39.5-62.8 8.1 2.9 3.5 35.9-10.2 73.5-3.2 8.9-6.7 17.2-10.1 24.7 5.4-3.5 11.1-7.1 17.2-10.6 34.7-20 66.3-30.2 70.6-22.8s-20.3 29.7-55 49.8c-8.6 4.9-16.9 9.3-24.7 12.9 8.6 0.7 18 2 27.7 3.7 39.5 7 70.2 19.5 68.7 27.9s-34.7 9.7-74.2 2.7c-9.5-1.7-18.5-3.7-26.7-5.9 5.9 6 12.1 12.7 18.3 20.1 25.8 30.7 41.3 60.1 34.7 65.6-6.6 5.5-32.8-14.9-58.6-45.6-20.2-24-34.1-47.2-36-58.8-0.3-0.5-0.4-1.1-0.4-1.8-0.1-0.5-0.1-1-0.1-1.5 0.1-0.4 0.2-0.9 0.5-1.3 0.3-0.5 0.5-1.1 0.8-1.5z" fill="#878EB6" p-id="31292"></path><path d="M304.1 501.4l8 91.4c1.6 18.5-12.1 34.8-30.6 36.4-3.9 0.3-7.8 0-11.6-1-17.9-4.8-28.6-23.2-23.8-41.2 1-3.8 2.7-7.4 4.9-10.6l52.6-75.2-0.3-0.1-74.6 52.2c-15.2 10.6-36.2 6.9-46.8-8.3-2.2-3.2-3.9-6.8-4.9-10.6-4.8-17.9 5.8-36.4 23.8-41.2 3.8-1 7.7-1.4 11.6-1L301 500l-80.7-37.6c-16.8-7.9-24.1-27.9-16.2-44.7 1.7-3.6 3.9-6.8 6.7-9.6 13.1-13.1 34.4-13.1 47.5 0 2.8 2.8 5 6 6.7 9.6l38.5 82.5 0.9 0.1-0.6 0.4 0.1 0.1 0.2-0.2v0.8z" fill="#AA94AC" p-id="31293"></path><path d="M303.5 500.7l-39 83.6c-7.9 16.8-27.9 24.1-44.7 16.2-3.6-1.7-6.8-3.9-9.6-6.7-13.1-13.1-13.1-34.4 0-47.5 2.8-2.8 6-5 9.6-6.7l83.4-38.9-91.3 8c-18.5 1.6-34.8-12.1-36.4-30.6-0.3-3.9 0-7.8 1-11.6 4.8-17.9 23.2-28.6 41.2-23.8 3.8 1 7.4 2.7 10.6 4.9l75.8 53-0.6 0.1z" fill="#CFBDD7" p-id="31294"></path><path d="M719.9 500.9l0.1-0.1-0.6-0.4 0.9-0.1 38.5-82.5c1.7-3.6 3.9-6.8 6.7-9.6 13.1-13.1 34.4-13.1 47.5 0 2.8 2.8 5 6 6.7 9.6 7.9 16.8 0.6 36.8-16.2 44.7L722.7 500l88.7-7.7c3.9-0.3 7.8 0 11.6 1 17.9 4.8 28.6 23.2 23.8 41.2-1 3.8-2.7 7.4-4.9 10.6-10.6 15.2-31.6 18.9-46.8 8.3l-74.6-52.2-0.3 0.1 52.6 75.2c2.2 3.2 3.9 6.8 4.9 10.6 4.8 17.9-5.8 36.4-23.8 41.2-3.8 1-7.7 1.4-11.6 1-18.5-1.6-32.2-17.9-30.6-36.4l8-91.3v-0.1l0.1-0.7 0.1 0.1z" fill="#AA94AC" p-id="31295"></path><path d="M720.5 500.7l83.4 38.9c3.6 1.7 6.8 3.9 9.6 6.7 13.1 13.1 13.1 34.4 0 47.5-2.8 2.8-6 5-9.6 6.7-16.8 7.9-36.8 0.6-44.7-16.2l-39-83.6h-0.5l75.8-53c3.2-2.2 6.8-3.9 10.6-4.9 17.9-4.8 36.4 5.8 41.2 23.8 1 3.8 1.4 7.7 1 11.6-1.6 18.5-17.9 32.2-36.4 30.6l-91.4-8.1z" fill="#CFBDD7" p-id="31296"></path><path d="M312.2 527.4c-4.7-127 96.7-224.4 199.7-224.4 102.8 0 204.8 99.6 199.9 224.1 6.8-4.6 13.4-6.3 19-4.3 16.3 6 18.6 41.1 5 78.4-13.6 37.4-37.9 62.8-54.2 56.9-0.9-0.3-1.7-0.7-2.5-1.2-37 82.9-99.2 141.1-167.2 141.1-68.3 0-131.3-57.1-168.1-140.8-0.6 0.3-1.3 0.6-2 0.9-16.3 6-40.6-19.5-54.2-56.9-13.6-37.4-11.4-72.5 5-78.4 5.8-2.1 12.6-0.3 19.6 4.6z" fill="#FFEAEA" p-id="31297"></path><path d="M604 584c-13.8 0-25-11.2-25-25s11.2-25 25-25 59.2 1.9 47 22.8-33.2 27.2-47 27.2z m-184 0c-13.8 0-34.7-6.4-47-27.2s33.1-22.8 47-22.8 25 11.2 25 25-11.2 25-25 25z" fill="#DAC3DC" p-id="31298"></path><path d="M604 584c-13.8 0-25-11.2-25-25s11.2-25 25-25 25 11.2 25 25-11.2 25-25 25z m-184 0c-13.8 0-25-11.2-25-25s11.2-25 25-25 25 11.2 25 25-11.2 25-25 25z" fill="#717171" p-id="31299"></path><path d="M488 739.5a24 16.5 0 1 0 48 0 24 16.5 0 1 0-48 0Z" fill="#FFB1B1" p-id="31300"></path><path d="M697 636c1.7 0 3 1.3 3 3v64c0 1.7-1.3 3-3 3s-3-1.3-3-3v-64c0-1.7 1.3-3 3-3z m-368 0c1.7 0 3 1.3 3 3v64c0 1.7-1.3 3-3 3s-3-1.3-3-3v-64c0-1.7 1.3-3 3-3z" fill="#F9CF81" p-id="31301"></path><path d="M693 698h8c1.1 0 2 0.9 2 2v10c0 1.1-0.9 2-2 2h-8c-1.1 0-2-0.9-2-2v-10c0-1.1 0.9-2 2-2z m0 53h8c1.1 0 2 0.9 2 2v10c0 1.1-0.9 2-2 2h-8c-1.1 0-2-0.9-2-2v-10c0-1.1 0.9-2 2-2z m-368-53h8c1.1 0 2 0.9 2 2v10c0 1.1-0.9 2-2 2h-8c-1.1 0-2-0.9-2-2v-10c0-1.1 0.9-2 2-2z m0 53h8c1.1 0 2 0.9 2 2v10c0 1.1-0.9 2-2 2h-8c-1.1 0-2-0.9-2-2v-10c0-1.1 0.9-2 2-2z" fill="#D6B892" p-id="31302"></path><path d="M697 751c-1.6 0-8-1.8-8-15 0-8.8 2.7-16.8 8-24 5.3 7.2 8 15.2 8 24 0 13.2-6.4 15-8 15z m-368 0c-1.6 0-8-1.8-8-15 0-8.8 2.7-16.8 8-24 5.3 7.2 8 15.2 8 24 0 13.2-6.4 15-8 15z" fill="#BD5C59" p-id="31303"></path><path d="M512 407.2c-21.1 27.5-49.7 48.4-79.8 50.8-59.7 0.5-108 47-108 104.1 0 12 2.1 23.6 6.1 34.4h-0.1c-5.6-9.3-11.6-23.3-18-41.9-9.4-27.5-16-69.4-16-100.9 0-86.6 32.7-208.8 215.8-208.8 183 0 215.7 122.2 215.7 208.8 0 31.5-6.6 73.4-16 100.9-6.4 18.6-12.4 32.6-18 41.9h-0.1c3.9-10.8 6.1-22.3 6.1-34.4 0-57.2-48.2-103.6-108-104.1-30-2.4-58.5-23.2-79.7-50.8z" fill="#717171" p-id="31304"></path><path d="M317.9 570c1 1.8 1.9 3.5 2.8 5l0.1-0.1c-4.1-11.3-6.4-23.4-6.4-36.1 0-60 50.6-108.8 113.3-109.3 31.6-2.5 61.6-24.4 83.8-53.3 22.2 28.9 52.1 50.8 83.8 53.3 62.7 0.5 113.3 49.3 113.3 109.3 0 12.6-2.2 24.8-6.4 36.1l0.1 0.1c2.4-4 4.9-8.9 7.5-14.6-5.6 15.7-10.9 27.8-16 36.1h-0.1c3.9-10.8 6.1-22.3 6.1-34.4 0-57.2-48.2-103.6-108-104.1-30.1-2.4-58.7-23.2-79.8-50.8-21.1 27.5-49.7 48.4-79.8 50.8-59.7 0.5-108 47-108 104.1 0 12 2.1 23.6 6.1 34.4h-0.1c-3.9-6.5-8-15.4-12.3-26.5z" fill="#878787" p-id="31305"></path><path d="M711.4 360c-50.8-51.8-121.6-84-200-84s-149.1 32.2-200 84h-0.1l200.5-242 200.5 242h-0.9z" fill="#8F8190" p-id="31306"></path><path d="M339.8 325.8c47.4-36.8 107-58.8 171.7-58.8 65.9 0 126.6 22.8 174.4 60.9l26.6 32.1h-1c-50.8-51.8-121.6-84-200-84s-149.1 32.2-200 84h-0.1l28.4-34.2z" fill="#CFBDD7" p-id="31307"></path><path d="M388.6 304.3c-24.5 12-46.9 27.4-66.8 45.7-0.3-0.5-0.5-1.1-0.8-1.6l40.1-48.4c6.2 1.5 11.8 4.6 16.3 9-0.9-3.2-1.4-6.5-1.4-9.9 0-19.3 15.7-35 35-35 13.6 0 25.3 7.7 31.1 19-0.1-1-0.1-2-0.1-3 0-19.3 15.7-35 35-35 18 0 32.8 13.6 34.8 31h-0.3c-3.9 0-7.9 0.1-11.8 0.2-1.8-10.9-11.3-19.2-22.7-19.2-12.7 0-23 10.3-23 23 0 0.6 0 1.3 0.1 1.9-7.8 1.6-15.5 3.6-23 5.8-3.9-7-11.4-11.7-20-11.7-12.7 0-23 10.3-23 23-0.1 1.7 0.1 3.5 0.5 5.2zM592.8 288c-7.5-2.3-15.1-4.2-22.9-5.9 0.1-0.7 0.1-1.4 0.1-2.1 0-12.7-10.3-23-23-23-11.4 0-20.9 8.4-22.7 19.3-4-0.2-8-0.3-12.1-0.3 2-17.4 16.8-31 34.8-31 19.3 0 35 15.7 35 35 0 1 0 2-0.1 3 5.8-11.3 17.6-19 31.1-19 19.3 0 35 15.7 35 35 0 4-0.7 7.8-1.9 11.4-3.6-2-7.2-3.8-10.8-5.6 0.5-1.8 0.7-3.8 0.7-5.8 0-12.7-10.3-23-23-23-8.7 0-16.3 4.8-20.2 12z m70.1 12.2l40.6 49c-0.3 0.7-0.7 1.4-1.1 2-17-15.8-35.9-29.6-56.3-40.8 4.4-4.8 10.2-8.4 16.8-10.2z" fill="#CFBDD7" p-id="31308"></path><path d="M474.4 210.8c-0.6-0.5-1.2-1.1-1.8-1.7-8.6-8.6-12.1-19-7.8-23.3 4.3-4.3 14.7-0.8 23.3 7.8 3.7 3.7 6.5 7.8 8.1 11.5 1.2 1.4 1.7 3.4 1.5 5.8 0.2 2.3-0.3 4.3-1.5 5.8-1.6 3.8-4.3 7.8-8.1 11.5-8.6 8.6-19 12.1-23.3 7.8-4.3-4.3-0.8-14.7 7.8-23.3 0.6-0.7 1.2-1.3 1.8-1.9z m53.1 5.8c-1.2-1.4-1.7-3.4-1.5-5.8-0.2-2.3 0.3-4.3 1.5-5.8 1.6-3.8 4.3-7.8 8.1-11.5 8.6-8.6 19-12.1 23.3-7.8 4.3 4.3 0.8 14.7-7.8 23.3-0.6 0.6-1.2 1.2-1.8 1.7 0.6 0.5 1.2 1.1 1.8 1.7 8.6 8.6 12.1 19 7.8 23.3-4.3 4.3-14.7 0.8-23.3-7.8-3.8-3.5-6.5-7.6-8.1-11.3zM512 207c-13.3 0-24-13-24-29s10.7-29 24-29 24 13 24 29-10.7 29-24 29z m0 69c-13.3 0-24-13.4-24-30s10.7-30 24-30 24 13.4 24 30-10.7 30-24 30z" fill="#CFBDD7" p-id="31309"></path><path d="M596.6 198.1c-1.6-0.9-2.8-2.6-3.4-4.9-1-2.1-1.2-4.2-0.5-5.9 0.2-4.1 1.4-8.8 3.6-13.6 5.1-11 13.8-17.9 19.3-15.3 5.5 2.6 5.8 13.6 0.7 24.6-0.4 0.8-0.7 1.5-1.1 2.2 0.8 0.3 1.5 0.6 2.3 1 11 5.1 17.9 13.8 15.3 19.3s-13.6 5.8-24.6 0.7c-4.8-2.3-8.8-5.2-11.6-8.1z m-169.2 0c-2.8 3-6.8 5.9-11.5 8.1-11 5.1-22 4.8-24.6-0.7-2.6-5.5 4.3-14.1 15.3-19.3 0.8-0.4 1.5-0.7 2.3-1-0.4-0.7-0.8-1.5-1.1-2.2-5.1-11-4.8-22 0.7-24.6 5.5-2.6 14.1 4.3 19.3 15.3 2.2 4.8 3.4 9.5 3.6 13.6 0.7 1.8 0.4 3.8-0.5 5.9-0.8 2.2-1.9 3.9-3.5 4.9z" fill="#878EB6" p-id="31310"></path><path d="M512 209m-13 0a13 13 0 1 0 26 0 13 13 0 1 0-26 0Z" fill="#79658A" p-id="31311"></path><path d="M512 222c7.2 0 13-5.8 13-13s-5.8-13-13-13-13 5.8-13 13 5.8 13 13 13z m0 4c-9.4 0-17-7.6-17-17s7.6-17 17-17 17 7.6 17 17-7.6 17-17 17z" fill="#D6B892" p-id="31312"></path></svg>