<svg t="1735359731088" class="icon" viewBox="0 0 1024 1024" version="1.1" xmlns="http://www.w3.org/2000/svg" p-id="9171" width="200" height="200"><path d="M512 512m-448 0a448 448 0 1 0 896 0 448 448 0 1 0-896 0Z" fill="#A8C2C2" p-id="9172"></path><path d="M742.4 896.3C675.1 936.7 596.3 960 512 960s-163.1-23.3-230.4-63.7L318 424h388l36.4 472.3z" fill="#717171" p-id="9173"></path><path d="M592 952.9c-26 4.7-52.7 7.1-80 7.1-27.3 0-54-2.4-80-7.1V741h160v211.9z" fill="#FFEAEA" p-id="9174"></path><path d="M490.7 959.5l83.5-144.6c-16.7 9.4-38.6 15.1-62.6 15.1-33.4 0-62.7-11-79.5-27.5V741h160v211.9c-26 4.7-52.7 7.1-80 7.1-7.3 0-14.4-0.2-21.4-0.5z" fill="#FFD8D8" p-id="9175"></path><path d="M432 952.9c-16.3-2.9-32.3-6.8-48-11.4V808l48-20v164.9z m208-11.5c-15.7 4.7-31.7 8.5-48 11.4V788l48 20v133.4z" fill="#CBE0C5" p-id="9176"></path><path d="M251.3 876.4L384 825v116.4a445.53 445.53 0 0 1-132.7-65z m388.7 65V825l132.7 51.4a445.53 445.53 0 0 1-132.7 65z m-48 11.5c-24.6 4.4-50 6.9-75.9 7.1L592 813v139.9z m-84.1 7.1c-25.9-0.2-51.2-2.7-75.9-7.1V813l75.9 147z" fill="#E8F3E2" p-id="9177"></path><path d="M512 161.6c14.4-6.2 30.3-9.6 47-9.6 65.7 0 119 53.3 119 119v173H346V271c0-65.7 53.3-119 119-119 16.7 0 32.6 3.4 47 9.6z" fill="#717171" p-id="9178"></path><path d="M346.8 262.8l-50.7 50.7c-1.2 1.2-3.1 1.2-4.2 0-1.2-1.2-1.2-3.1 0-4.2l52.3-52.3c0.7-0.7 1.7-1 2.6-0.8 0.9-0.1 1.9 0.1 2.6 0.8l24 24c1.2 1.2 1.2 3.1 0 4.2-1.2 1.2-3.1 1.2-4.2 0l-22.4-22.4z m-9.8 18c1.7 0 3 1.3 3 3v84c0 1.7-1.3 3-3 3s-3-1.3-3-3v-84c0-1.7 1.4-3 3-3z m10-10c1.7 0 3 1.3 3 3v94c0 1.7-1.3 3-3 3s-3-1.3-3-3v-94c0-1.7 1.4-3 3-3z m10 10c1.7 0 3 1.3 3 3v84c0 1.7-1.3 3-3 3s-3-1.3-3-3v-84c0-1.7 1.4-3 3-3zM327 291c1.7 0 3 1.3 3 3v74c0 1.7-1.3 3-3 3s-3-1.3-3-3v-74c0-1.7 1.3-3 3-3z m-10 10c1.7 0 3 1.3 3 3v64c0 1.7-1.3 3-3 3s-3-1.3-3-3v-64c0-1.7 1.3-3 3-3z m-10 10c1.7 0 3 1.3 3 3v54c0 1.7-1.3 3-3 3s-3-1.3-3-3v-54c0-1.7 1.3-3 3-3z m-10 10c1.7 0 3 1.3 3 3v44c0 1.7-1.3 3-3 3s-3-1.3-3-3v-44c0-1.7 1.3-3 3-3z m70-30.2c1.7 0 3 1.3 3 3v74c0 1.7-1.3 3-3 3s-3-1.3-3-3v-74c0-1.7 1.4-3 3-3z" fill="#E8F3E2" p-id="9179"></path><path d="M312.2 527.4c-4.7-127 96.7-224.4 199.7-224.4 102.5 0 204.1 98.9 200 222.7 6.1-3.6 11.9-4.8 17-3 16.3 6 18.6 41.1 5 78.4-13.6 37.4-37.9 62.8-54.2 56.9-0.3-0.1-0.6-0.2-0.8-0.3-37 82.5-99.1 140.2-166.9 140.2-68.3 0-131.3-57.1-168.1-140.8-0.6 0.3-1.3 0.6-2 0.9-16.3 6-40.6-19.5-54.2-56.9-13.6-37.4-11.4-72.5 5-78.4 5.7-2 12.5-0.2 19.5 4.7z" fill="#FFEAEA" p-id="9180"></path><path d="M332 701.8l23.4 23.4c1.2 1.2 1.2 3.1 0 4.2-1.2 1.2-3.1 1.2-4.2 0L328.8 707l-22.4 22.4c-1.2 1.2-3.1 1.2-4.2 0-1.2-1.2-1.2-3.1 0-4.2l23.9-23.9V639c0-1.7 1.3-3 3-3s3 1.3 3 3v62.8z m368 0l23.4 23.4c1.2 1.2 1.2 3.1 0 4.2s-3.1 1.2-4.2 0L696.8 707l-22.4 22.4c-1.2 1.2-3.1 1.2-4.2 0s-1.2-3.1 0-4.2l23.9-23.9V639c0-1.7 1.3-3 3-3s3 1.3 3 3v62.8zM687 725c1.7 0 3 1.3 3 3v44c0 1.7-1.3 3-3 3s-3-1.3-3-3v-44c0-1.7 1.3-3 3-3z m10-10c1.7 0 3 1.3 3 3v54c0 1.7-1.3 3-3 3s-3-1.3-3-3v-54c0-1.7 1.3-3 3-3z m10 10c1.7 0 3 1.3 3 3v44c0 1.7-1.3 3-3 3s-3-1.3-3-3v-44c0-1.7 1.3-3 3-3z m-30 10c1.7 0 3 1.3 3 3v34c0 1.7-1.3 3-3 3s-3-1.3-3-3v-34c0-1.7 1.3-3 3-3z m40 0c1.7 0 3 1.3 3 3v34c0 1.7-1.3 3-3 3s-3-1.3-3-3v-34c0-1.7 1.3-3 3-3z m-398-10c1.7 0 3 1.3 3 3v44c0 1.7-1.3 3-3 3s-3-1.3-3-3v-44c0-1.7 1.3-3 3-3z m10-10c1.7 0 3 1.3 3 3v54c0 1.7-1.3 3-3 3s-3-1.3-3-3v-54c0-1.7 1.3-3 3-3z m10 10c1.7 0 3 1.3 3 3v44c0 1.7-1.3 3-3 3s-3-1.3-3-3v-44c0-1.7 1.3-3 3-3z m-30 10c1.7 0 3 1.3 3 3v34c0 1.7-1.3 3-3 3s-3-1.3-3-3v-34c0-1.7 1.3-3 3-3z m40 0c1.7 0 3 1.3 3 3v34c0 1.7-1.3 3-3 3s-3-1.3-3-3v-34c0-1.7 1.3-3 3-3z" fill="#E8F3E2" p-id="9181"></path><path d="M660.9 320c-8.1-4.8-20.2-15.8-32.1-30-18.1-21.5-29-42.1-24.3-46 4.6-3.9 23 10.4 41 32 4.4 5.3 8.4 10.5 11.9 15.5-0.5-6-0.8-12.6-0.8-19.6 0-28.1 4.9-50.9 10.9-50.9s10.9 22.8 10.9 50.9c0 6.8-0.3 13.2-0.8 19.1 3.4-4.8 7.3-9.9 11.6-15 18.1-21.5 36.4-35.8 41-32 4.6 3.9-6.3 24.4-24.3 46-4.7 5.6-9.4 10.7-13.9 15.1 5.3-1.4 11.1-2.6 17.2-3.7 27.7-4.9 50.9-4 52 1.9 1 5.9-20.5 14.7-48.2 19.6-7.8 1.4-15.2 2.3-21.9 2.8 6.1 2.7 12.8 6.1 19.6 10.1 24.3 14 41.6 29.7 38.6 34.9-3 5.2-25.2-2-49.5-16-23.4-13.5-40.3-28.5-38.8-34.3-0.1-0.2-0.1-0.3-0.1-0.4z" fill="#8CA685" p-id="9182"></path><path d="M661.2 318.2c-6.2-6.9-14.1-21.9-20.8-40.2-9.6-26.4-12.8-49.5-7.2-51.5s18 17.7 27.6 44.1c2.7 7.4 4.9 14.6 6.5 21 1.6-6.5 3.8-13.6 6.5-21 9.6-26.4 22-46.1 27.6-44.1s2.4 25.1-7.2 51.5c-2.3 6.3-4.7 12.1-7.2 17.4 3.8-2.5 7.8-5 12.1-7.5 24.3-14 46.5-21.2 49.5-16 3 5.2-14.3 20.8-38.6 34.9-6 3.5-11.8 6.5-17.3 9 6 0.5 12.6 1.4 19.4 2.6 27.7 4.9 49.2 13.6 48.2 19.6-1 5.9-24.3 6.8-52 1.9-6.7-1.2-13-2.6-18.7-4.1 4.2 4.2 8.5 8.9 12.8 14 18.1 21.5 29 42.1 24.3 46-4.6 3.9-23-10.4-41-32-13.9-16.6-23.6-32.7-25.2-40.9v-0.1c-0.2-0.4-0.4-0.9-0.3-1.5-0.1-0.3-0.1-0.7 0-1l0.3-0.9c0.2-0.5 0.4-0.9 0.7-1.2z" fill="#CBE0C5" p-id="9183"></path><path d="M349 463.9l23.5 4.1c-10.7 20.5-18.5 43.1-22.7 67.1-9.4 53.2 0.1 105.3 23.7 149.5-31.4-41.2-53.7-89.3-64.6-140.9-7.6-26.9-12.6-62.4-12.6-89.9 0-86.6 32.7-208.7 215.8-208.8 183.1 0 215.8 122.2 215.8 208.8 0 25.2-4.2 57-10.8 82.9C706.9 591.1 684 641.8 651 685c23.5-44.2 33-96.3 23.7-149.5-4.2-24-12-46.5-22.7-67.1l23.8-4.2c-33.5-50.8-94.2-84.8-163.5-84.8-69.2 0-129.7 33.8-163.3 84.5z" fill="#717171" p-id="9184"></path><path d="M674.7 474.6C664 481.2 651.5 485 638 485c-38.7 0-70-31.3-70-70s31.3-70 70-70 70 31.3 70 70c0 17.3-6.3 33.2-16.7 45.4 10.6-6.6 23.1-10.3 36.5-10.4v3.8c0 31.5-6.6 73.4-16 100.9-4 11.7-7.9 21.6-11.6 29.6-24.8-10.8-42.2-35.5-42.2-64.3 0-17.3 6.3-33.2 16.7-45.4zM338 464c-12.4-12.6-20-29.9-20-49 0-38.7 31.3-70 70-70s70 31.3 70 70-31.3 70-70 70c-15.8 0-30.3-5.2-42-14 12.4 12.6 20 29.9 20 49 0 28.8-17.3 53.5-42.1 64.2-3.7-8-7.6-17.9-11.6-29.6-9.4-27.5-16-69.4-16-100.9v-3.8c15.6 0.2 30.1 5.4 41.7 14.1z m175-43c-38.7 0-70-31.3-70-70s31.3-70 70-70 70 31.3 70 70-31.3 70-70 70z" fill="#717171" p-id="9185"></path><path d="M482 219a30 20 0 1 0 60 0 30 20 0 1 0-60 0Z" fill="#CBE0C5" p-id="9186"></path><path d="M497 219a15 10 0 1 0 30 0 15 10 0 1 0-30 0Z" fill="#8CA685" p-id="9187"></path><path d="M727.8 450v3.8c0 8.2-0.4 17.1-1.3 26.3-32.9 0.7-60.2 24-66.9 55-1.1-4.8-1.6-9.9-1.6-15 0-38.7 31.2-70 69.8-70.1z m-431.5 0c38.5 0.2 69.7 31.4 69.7 70 0 5.1-0.6 10.2-1.6 15-6.8-31-34-54.3-66.8-55-0.8-9.2-1.3-18.1-1.3-26.3V450zM569.6 430c-1.1-4.8-1.6-9.9-1.6-15 0-38.7 31.3-70 70-70s70 31.3 70 70c0 5.1-0.6 10.2-1.6 15-6.9-31.5-34.9-55-68.4-55s-61.5 23.5-68.4 55z" fill="#878787" p-id="9188"></path><path d="M444.6 366c-1.1-4.8-1.6-9.9-1.6-15 0-38.7 31.3-70 70-70s70 31.3 70 70c0 5.1-0.6 10.2-1.6 15-6.9-31.5-34.9-55-68.4-55s-61.5 23.5-68.4 55zM319.6 430c-1.1-4.8-1.6-9.9-1.6-15 0-38.7 31.3-70 70-70s70 31.3 70 70c0 5.1-0.6 10.2-1.6 15-6.9-31.5-34.9-55-68.4-55s-61.5 23.5-68.4 55z" fill="#878787" p-id="9189"></path><path d="M718.3 531.5c-2.7-2.7-4.3-6.4-4.3-10.5 0-6.2 3.7-11.5 9.1-13.8-1.4 8.3-3 16.6-4.8 24.3z m-417.4-25c6.4 1.7 11.1 7.6 11.1 14.5 0 4.9-2.3 9.2-5.9 11.9-2-8.4-3.8-17.3-5.2-26.4zM512 381c-11 0-20-13.4-20-30s9-30 20-30 20 13.4 20 30-9 30-20 30z m125 50c-8.3 0-15-6.7-15-15s6.7-15 15-15 15 6.7 15 15-6.7 15-15 15z m-248 0c-8.3 0-15-6.7-15-15s6.7-15 15-15 15 6.7 15 15-6.7 15-15 15z" fill="#CBE0C5" p-id="9190"></path><path d="M502 351a10 15 0 1 0 20 0 10 15 0 1 0-20 0Z" fill="#8CA685" p-id="9191"></path><path d="M604 584c-13.8 0-25-11.2-25-25s11.2-25 25-25 59.2 1.9 47 22.8-33.2 27.2-47 27.2z m-184 0c-13.8 0-34.7-6.4-47-27.2s33.1-22.8 47-22.8 25 11.2 25 25-11.2 25-25 25z" fill="#FFDEDE" p-id="9192"></path><path d="M604 584c-13.8 0-25-11.2-25-25s11.2-25 25-25 25 11.2 25 25-11.2 25-25 25z m-184 0c-13.8 0-25-11.2-25-25s11.2-25 25-25 25 11.2 25 25-11.2 25-25 25z" fill="#717171" p-id="9193"></path><path d="M488 739.5a24 16.5 0 1 0 48 0 24 16.5 0 1 0-48 0Z" fill="#FFB1B1" p-id="9194"></path></svg>